<svg width="1100" height="1100" viewBox="0 0 1100 1100" fill="none" xmlns="http://www.w3.org/2000/svg">
<path d="M1058.49 740.83C1055.82 730.752 1051.49 721.191 1045.69 712.529C1046.93 707.97 1047.88 703.336 1048.52 698.653C1052.64 668.941 1042.34 641.739 1022.93 620.693C1012.41 609.198 1001.14 601.606 989.201 596.947C997.037 563.421 1001 529.11 1001.02 494.684C1001.02 478.958 1000.13 463.555 998.638 448.381C997.862 440.804 996.922 433.246 995.818 425.709C992.403 403.469 987.331 381.513 980.649 360.03C976.269 345.913 971.202 332.018 965.465 318.395C956.868 298.22 946.83 278.689 935.429 259.955C927.952 247.49 919.808 235.437 911.032 223.848C906.731 217.996 902.252 212.283 897.588 206.715C883.776 189.93 868.766 174.167 852.677 159.551C847.332 154.638 841.838 149.892 836.195 145.322C830.641 140.689 824.963 136.207 819.171 131.878C807.512 123.2 795.465 115.059 783.065 107.48C714.546 65.8653 634.195 42 548.315 42C298.266 42 95.6106 244.666 95.6106 494.699C95.6006 529.562 99.6378 564.306 107.643 598.235C96.9033 602.898 86.6114 610.167 77.0653 620.683C57.6598 641.719 47.353 668.821 51.4747 698.533C52.1012 703.252 53.0409 707.925 54.2938 712.52C48.497 721.186 44.1745 730.752 41.501 740.83C35.5347 763.507 37.4986 783.956 45.0808 801.875C36.8374 825.293 38.8958 850.232 49.6302 871.915C57.4361 887.75 68.608 900.001 82.3803 910.949C98.7528 923.966 119.247 935.023 143.968 945.634C173.461 958.212 209.463 970.031 225.835 974.366C268.127 985.315 308.678 992.255 349.776 992.593C408.33 993.135 458.755 979.368 494.857 944.132C512.592 946.305 530.446 947.394 548.315 947.384C567.193 947.344 586.052 946.156 604.786 943.829C640.803 979.289 691.422 993.18 750.19 992.623C791.283 992.295 831.834 985.354 874.016 974.391C890.498 970.056 926.485 958.237 955.993 945.658C980.714 935.033 1001.21 923.976 1017.69 910.979C1031.36 900.026 1042.52 887.78 1050.33 871.945C1061.17 850.257 1063.12 825.318 1054.99 801.9C1062.5 783.981 1064.46 763.487 1058.49 740.83ZM1016.53 800.359C1024.84 816.125 1025.37 833.939 1018.04 850.53C1006.93 875.674 979.312 895.482 925.679 916.747C892.328 929.972 861.79 938.429 861.522 938.504C817.411 949.944 777.516 955.756 742.981 955.756C685.794 955.756 643.239 939.975 616.251 908.811C570.614 916.587 524.017 916.851 478.295 909.597C451.273 940.244 408.962 955.756 352.257 955.756C317.717 955.756 277.827 949.944 233.711 938.504C233.442 938.429 202.915 929.972 169.553 916.747C115.926 895.482 88.3018 875.688 77.1896 850.53C69.8609 833.939 70.3929 816.125 78.701 800.359C79.4667 798.892 80.292 797.465 81.1721 796.083C76.1932 788.605 72.8535 780.158 71.3724 771.293C69.8918 762.433 70.3034 753.359 72.5806 744.668C75.8819 732.124 82.6985 721.693 91.9562 714.2C87.4964 706.871 84.5704 698.717 83.3548 690.225C80.6898 671.76 86.8202 653.324 100.607 638.289C111.347 626.59 126.526 620.151 143.331 620.151H143.779C131.108 579.535 124.683 537.229 124.726 494.684C124.726 262.639 312.844 74.5065 544.924 74.5065C776.999 74.5065 965.117 262.62 965.117 494.684C965.152 537.344 958.683 579.759 945.93 620.469C947.959 620.27 949.947 620.171 951.901 620.166C968.707 620.166 983.891 626.605 994.62 638.304C1008.41 653.324 1014.54 671.775 1011.87 690.24C1010.66 698.732 1007.73 706.886 1003.28 714.215C1012.53 721.708 1019.36 732.139 1022.65 744.683C1024.93 753.374 1025.34 762.448 1023.86 771.313C1022.38 780.173 1019.04 788.62 1014.06 796.098C1014.94 797.465 1015.78 798.892 1016.53 800.359Z" fill="white"/>
<path d="M1014.06 796.098C1019.04 788.62 1022.38 780.173 1023.87 771.313C1025.34 762.448 1024.93 753.374 1022.65 744.683C1019.35 732.139 1012.53 721.708 1003.28 714.215C1007.74 706.886 1010.66 698.732 1011.87 690.24C1014.54 671.775 1008.41 653.339 994.62 638.304C983.891 626.605 968.706 620.166 951.901 620.166C949.947 620.166 947.959 620.27 945.93 620.469C958.668 579.759 965.127 537.349 965.082 494.694C965.082 262.645 776.964 74.5169 544.909 74.5169C312.849 74.5169 124.711 262.625 124.711 494.694C124.669 537.239 131.093 579.545 143.764 620.161H143.316C126.511 620.161 111.332 626.595 100.597 638.294C86.8103 653.314 80.6744 671.77 83.3443 690.23C84.5609 698.722 87.4869 706.881 91.9458 714.21C82.688 721.698 75.867 732.129 72.5657 744.673C70.2895 753.369 69.8793 762.443 71.362 771.308C72.8446 780.168 76.1857 788.62 81.1666 796.098C80.2816 797.48 79.4662 798.907 78.6956 800.374C70.3924 816.14 69.856 833.954 77.1896 850.545C88.3068 875.688 115.92 895.497 169.553 916.762C202.899 929.987 233.442 938.444 233.711 938.519C277.822 949.959 317.717 955.771 352.252 955.771C408.962 955.771 451.273 940.259 478.295 909.612C524.017 916.866 570.614 916.597 616.251 908.826C643.239 939.99 685.794 955.771 742.981 955.771C777.516 955.771 817.411 949.959 861.517 938.519C861.79 938.444 892.318 929.987 925.679 916.762C979.312 895.497 1006.93 875.688 1018.04 850.545C1025.37 833.954 1024.84 816.14 1016.53 800.374C1015.78 798.897 1014.94 797.465 1014.06 796.098ZM458.959 861.633C456.632 865.7 454.141 869.672 451.491 873.536C444.506 883.763 435.318 891.579 424.653 897.386C404.268 908.503 378.464 912.386 352.252 912.386C310.84 912.386 268.39 902.696 244.599 896.526C243.426 896.222 98.7528 855.358 117.069 820.575C120.152 814.723 125.223 812.386 131.612 812.386C157.401 812.386 204.361 850.789 224.542 850.789C229.052 850.789 232.234 848.87 233.531 844.186C242.133 813.34 102.804 800.374 114.538 755.706C116.607 747.8 122.225 744.588 130.121 744.588C164.218 744.584 240.746 804.55 256.751 804.55C257.979 804.55 258.858 804.187 259.336 803.431C259.405 803.317 259.475 803.208 259.54 803.088C267.053 790.683 262.742 781.664 211.277 750.142L206.335 747.134C149.7 712.858 109.949 692.229 132.556 667.618C135.157 664.779 138.846 663.521 143.326 663.521C148.636 663.521 155.064 665.296 162.144 668.279C192.056 680.893 233.512 715.294 250.829 730.294C253.553 732.661 256.26 735.052 258.948 737.459C258.948 737.459 280.875 760.26 294.13 760.26C297.183 760.26 299.772 759.057 301.528 756.084C310.93 740.233 214.206 666.937 208.751 636.693C205.052 616.203 211.347 605.822 222.981 605.822C228.515 605.822 235.267 608.179 242.72 612.907C265.839 627.579 310.477 704.286 326.82 734.128C332.299 744.126 341.651 748.352 350.078 748.352C366.799 748.352 379.87 731.731 351.61 710.61C309.135 678.83 324.041 626.883 344.312 623.686C345.177 623.547 346.051 623.477 346.921 623.477C365.357 623.477 373.486 655.243 373.486 655.243C373.486 655.243 397.322 715.095 438.266 756.009C475.416 793.144 480.607 823.617 458.959 861.633ZM591.357 868.643L589.234 868.897L585.614 869.309C583.71 869.508 581.801 869.697 579.887 869.871L578.022 870.04L576.317 870.184L573.9 870.378L571.23 870.572L568.566 870.746L567.974 870.786C567.278 870.826 566.582 870.871 565.876 870.905L564.986 870.955C564.16 871 563.335 871.04 562.5 871.074L559.611 871.199L556.991 871.288L555.241 871.338H554.351C553.804 871.338 553.262 871.368 552.715 871.373H551.85C551.303 871.373 550.761 871.373 550.214 871.398L547.987 871.427H544.879C542.438 871.427 540.002 871.403 537.575 871.353L535.607 871.308C535.045 871.308 534.483 871.283 533.931 871.263L531.843 871.204L529.252 871.104L526.916 871L526.314 870.975L524.092 870.861C523.47 870.826 522.859 870.796 522.242 870.751L520.805 870.667C519 870.552 517.195 870.428 515.391 870.289L513.501 870.135C512.706 870.075 511.91 870.001 511.12 869.931C510.19 869.851 509.26 869.762 508.331 869.672C506.774 869.528 505.218 869.369 503.662 869.2H503.587C526.309 818.511 514.819 771.168 468.903 725.292C438.788 695.217 418.756 650.808 414.6 641.058C406.187 612.196 383.923 580.112 346.947 580.112C343.819 580.112 340.697 580.361 337.609 580.848C321.411 583.398 307.251 592.721 297.148 606.752C286.229 593.173 275.619 582.379 266.024 576.284C251.555 567.11 237.116 562.457 223.051 562.457C205.495 562.457 189.803 569.666 178.865 582.742L178.587 583.075C178.378 582.215 178.179 581.355 177.975 580.49L177.95 580.376C175.868 571.476 174.121 562.502 172.71 553.468C172.71 553.408 172.71 553.348 172.68 553.288C172.571 552.607 172.471 551.921 172.367 551.24C172.061 549.221 171.774 547.198 171.507 545.174C171.387 544.255 171.258 543.335 171.144 542.415L170.806 539.655C170.696 538.736 170.607 537.9 170.507 537.025L170.478 536.807C170.081 533.227 169.733 529.647 169.433 526.057L169.324 524.68L169.15 522.333C169.1 521.692 169.05 521.046 169.016 520.399C169.016 520.245 168.991 520.096 168.986 519.952C168.86 518.152 168.752 516.347 168.663 514.542C168.613 513.603 168.563 512.668 168.523 511.723L168.424 509.257L168.399 508.511L168.32 506.239L168.27 504.305C168.27 503.534 168.23 502.764 168.22 501.993C168.205 501.222 168.185 500.377 168.18 499.562C168.17 498.746 168.18 497.941 168.156 497.131C168.136 496.315 168.156 495.505 168.156 494.694C168.156 286.605 336.858 117.902 544.969 117.902C753.074 117.902 921.771 286.6 921.771 494.694V499.562C921.771 500.372 921.747 501.188 921.732 501.993C921.732 502.664 921.702 503.326 921.682 504.007C921.682 504.603 921.657 505.205 921.637 505.782C921.637 506.542 921.592 507.303 921.568 508.064V508.124L921.463 510.764C921.428 511.534 921.399 512.31 921.359 513.081L921.334 513.627L921.2 516.094C920.906 521.379 920.504 526.654 920.001 531.924V531.989C919.917 532.854 919.832 533.719 919.738 534.584L919.514 536.628L919.072 540.625L918.818 542.649L918.505 545.03C918.391 545.895 918.276 546.765 918.147 547.625C918.018 548.595 917.873 549.56 917.729 550.524L917.386 552.806L916.978 555.392C916.839 556.252 916.69 557.107 916.531 557.962C916.367 558.822 916.238 559.677 916.089 560.533C915.79 562.243 915.477 563.953 915.149 565.659C914.647 568.209 914.135 570.755 913.608 573.301L913.061 575.821C912.882 576.662 912.688 577.507 912.499 578.347C901.894 568.04 887.848 562.427 872.36 562.427C858.305 562.427 843.851 567.076 829.388 576.249C819.792 582.344 809.187 593.143 798.264 606.717C788.146 592.686 773.986 583.364 757.797 580.813C754.71 580.326 751.587 580.077 748.46 580.077C711.474 580.077 689.224 612.161 680.807 641.023C676.63 650.773 656.594 695.182 626.454 725.302C580.568 771.034 568.993 818.163 591.357 868.643ZM980.366 767.171L980.217 767.614C979.839 768.613 979.401 769.587 978.909 770.532C978.536 771.228 978.133 771.904 977.696 772.561C976.865 773.799 975.956 774.982 974.966 776.096C974.737 776.354 974.519 776.613 974.26 776.866C973.902 777.249 973.539 777.627 973.166 777.995C966.474 784.627 956.272 790.445 944.737 795.78C943.429 796.371 942.102 796.963 940.764 797.559L939.432 798.151C938.542 798.544 937.652 798.932 936.717 799.315C935.827 799.702 934.902 800.09 933.978 800.468L931.203 801.612C924.715 804.282 918.067 806.827 911.584 809.338L908.81 810.417L906.07 811.491C904.245 812.202 902.446 812.913 900.676 813.624L898.035 814.688L895.44 815.747L894.167 816.284C893.317 816.637 892.487 816.99 891.656 817.343C872.579 825.532 858.852 833.86 861.735 844.191C861.815 844.485 861.904 844.763 862.004 845.036C862.262 845.802 862.615 846.523 863.058 847.204C863.316 847.607 863.615 847.99 863.948 848.338C867.339 851.863 873.509 851.306 881.29 848.507C882.384 848.104 883.473 847.686 884.552 847.249L885.228 846.971C887.008 846.215 888.892 845.37 890.816 844.455C891.299 844.226 891.786 844.007 892.273 843.754C901.789 839.1 912.573 832.835 923.273 827.133C927.554 824.821 931.894 822.628 936.289 820.545C946.422 815.777 955.949 812.396 963.605 812.396C967.2 812.396 970.372 813.132 973.017 814.822L973.46 815.115C975.12 816.284 976.512 817.785 977.552 819.525C977.755 819.859 977.954 820.212 978.148 820.575C981.932 827.759 978.765 835.197 971.352 842.491C964.237 849.496 953.169 856.362 940.59 862.717C939.656 863.189 938.721 863.661 937.771 864.124C900.333 882.51 851.304 896.357 850.623 896.531C837.557 899.917 818.872 904.361 797.821 907.688L794.709 908.175L794.197 908.25C791.84 908.608 789.478 908.941 787.112 909.249C784.71 909.572 782.284 909.865 779.843 910.139L779.395 910.189C770.545 911.208 761.66 911.884 752.756 912.207H752.626C749.405 912.322 746.188 912.381 742.966 912.381H739.252C734.34 912.317 729.437 912.093 724.54 911.715C724.426 911.715 724.301 911.715 724.187 911.685C722.432 911.551 720.682 911.387 718.932 911.193C717.117 910.999 715.307 910.78 713.502 910.537C712.314 910.378 711.131 910.199 709.947 910.005C708.744 909.811 707.541 909.612 706.343 909.403L704.707 909.095L704.583 909.07C702.857 908.742 701.142 908.379 699.432 907.981C698.437 907.757 697.448 907.539 696.468 907.27L695.877 907.121C695.389 907.002 694.917 906.872 694.435 906.743L694.171 906.673L692.64 906.226C692.083 906.072 691.526 905.903 690.969 905.739L690.776 905.684L689.329 905.242C688.782 905.073 688.235 904.894 687.693 904.715L686.36 904.272L685.381 903.929C684.436 903.596 683.497 903.253 682.567 902.895L681.682 902.547L680.951 902.258C679.539 901.692 678.137 901.1 676.75 900.478L675.83 900.031L675.676 899.961C675.348 899.807 675.024 899.653 674.696 899.519C674.055 899.211 673.419 898.892 672.787 898.569L672.593 898.475L671.678 897.992C670.053 897.142 668.462 896.237 666.9 895.278L666.045 894.751C665.618 894.487 665.19 894.214 664.772 893.935L663.659 893.199L662.46 892.374L661.744 891.862C660.989 891.325 660.248 890.768 659.522 890.197L658.364 889.307C657.901 888.934 657.444 888.556 656.991 888.173C656.608 887.86 656.236 887.532 655.863 887.203L655.833 887.178C655.43 886.825 655.037 886.472 654.644 886.11C654.257 885.757 653.869 885.399 653.491 885.036L653.446 884.991C653.049 884.613 652.661 884.23 652.278 883.837C651.895 883.45 651.502 883.062 651.129 882.664C650.756 882.271 650.374 881.868 650.006 881.456C649.638 881.048 649.3 880.675 648.952 880.273L648.837 880.138C648.499 879.75 648.166 879.358 647.838 878.955C647.127 878.105 646.436 877.235 645.77 876.345C645.098 875.45 644.442 874.535 643.801 873.605L643.189 872.69C642.374 871.497 641.578 870.294 640.808 869.071C640.231 868.191 639.669 867.306 639.122 866.406C638.769 865.844 638.431 865.277 638.093 864.72L637.954 864.492C637.631 863.945 637.312 863.408 637.004 862.866C636.825 862.572 636.656 862.279 636.497 861.976C636.333 861.668 636.144 861.354 635.97 861.041L635.687 860.549L635.513 860.231C635.179 859.634 634.851 859.032 634.533 858.426C634.384 858.157 634.24 857.889 634.086 857.63L633.643 856.77L633.196 855.92C632.077 853.683 631.018 851.415 630.024 849.118L629.671 848.278C629.442 847.716 629.228 847.159 628.999 846.608C628.89 846.339 628.781 846.076 628.686 845.807C628.154 844.43 627.657 843.038 627.199 841.636C627.035 841.133 626.876 840.641 626.727 840.144C626.369 839.015 626.046 837.877 625.758 836.728C625.405 835.391 625.091 834.044 624.828 832.686C624.773 832.413 624.718 832.139 624.674 831.876C624.415 830.548 624.206 829.211 624.042 827.868C624.002 827.605 623.973 827.341 623.943 827.078L623.858 826.272C623.749 825.218 623.664 824.159 623.615 823.1C623.615 822.832 623.59 822.563 623.58 822.305C623.555 821.778 623.545 821.251 623.54 820.724C623.262 799.479 634.011 779.054 656.996 756.079C697.94 715.175 721.776 655.318 721.776 655.318C721.776 655.318 722.417 652.807 723.749 649.192C723.933 648.69 724.127 648.173 724.346 647.631C725.122 645.607 725.997 643.619 726.966 641.679L727.16 641.307C727.985 639.656 728.89 638.045 729.865 636.479C730.094 636.116 730.312 635.758 730.566 635.395C731.297 634.316 732.067 633.262 732.878 632.243C733.32 631.691 733.803 631.144 734.285 630.612C734.479 630.403 734.668 630.194 734.872 629.995C737.243 627.544 739.953 625.546 743.021 624.482L743.408 624.352C743.667 624.268 743.926 624.188 744.189 624.114C744.492 624.034 744.796 623.965 745.109 623.9L745.253 623.87C745.899 623.741 746.556 623.656 747.217 623.611H747.272C747.615 623.611 747.963 623.577 748.316 623.577C748.758 623.577 749.171 623.577 749.603 623.621C750.051 623.661 750.493 623.711 750.941 623.781C754.63 624.367 758.14 626.565 761.163 629.956C762.312 631.248 763.346 632.64 764.251 634.112C764.847 635.067 765.409 636.076 765.941 637.14C766.155 637.583 766.359 637.99 766.558 638.428C767.075 639.552 767.542 640.695 767.95 641.863C768.919 644.598 769.65 647.412 770.133 650.276C770.55 652.787 770.799 655.322 770.878 657.863C770.918 659.22 770.918 660.598 770.878 661.985C770.61 668.438 769.287 674.807 766.965 680.838C766.757 681.39 766.523 681.947 766.299 682.504C765.842 683.628 765.34 684.731 764.798 685.81C764.395 686.631 763.972 687.456 763.515 688.276C763.217 688.823 762.903 689.37 762.59 689.917C761.79 691.28 760.925 692.632 759.995 693.979L759.433 694.785C757.235 697.847 754.789 700.721 752.114 703.376C749.479 706.016 746.655 708.457 743.667 710.685C740.674 712.902 737.865 715.359 735.269 718.028C727.797 725.869 726.056 732.79 727.737 738.036C728.005 738.861 728.358 739.661 728.786 740.417C729.288 741.282 729.885 742.078 730.561 742.804L730.824 743.077L731.093 743.345C731.361 743.604 731.645 743.858 731.948 744.106L732.246 744.345C732.967 744.902 733.733 745.399 734.534 745.836C734.767 745.961 734.976 746.085 735.24 746.204C736.105 746.627 736.995 746.99 737.909 747.283C738.163 747.368 738.417 747.442 738.675 747.522L738.998 747.606L739.446 747.726L739.829 747.82L740.246 747.91L740.659 747.994L741.052 748.059C741.34 748.109 741.638 748.158 741.937 748.193L742.22 748.238L742.737 748.288L743.055 748.322L743.577 748.357H743.886L744.433 748.387H746.153L746.645 748.357L747.212 748.322L747.903 748.258L748.549 748.183C748.699 748.183 748.848 748.143 748.997 748.114C750.986 747.825 752.935 747.298 754.799 746.542L755.59 746.209C756.032 746.015 756.48 745.812 756.887 745.593C757.762 745.155 758.613 744.658 759.428 744.116C760.567 743.37 761.64 742.535 762.645 741.615C762.883 741.402 763.117 741.173 763.346 740.954C763.46 740.845 763.57 740.74 763.679 740.621C763.898 740.397 764.121 740.178 764.34 739.935C765.931 738.185 767.308 736.256 768.442 734.182C778.172 716.487 788.37 699.056 799.024 681.907L800.486 679.566L801.963 677.224C802.699 676.036 803.445 674.867 804.185 673.704L804.931 672.54C807.407 668.662 809.923 664.809 812.483 660.986L814 658.718C817.043 654.209 820.076 649.824 823.084 645.657L824.58 643.594C827.852 639.084 831.257 634.669 834.792 630.363L836.195 628.683C836.428 628.404 836.642 628.126 836.896 627.858C837.358 627.311 837.82 626.779 838.273 626.262C838.502 625.998 838.715 625.739 838.959 625.481L840.291 623.979L840.958 623.249C841.629 622.528 842.285 621.837 842.932 621.175C843.379 620.728 843.792 620.285 844.219 619.868C846.74 617.292 849.519 614.98 852.517 612.977L853.213 612.529C853.88 612.082 854.571 611.664 855.277 611.286C867.031 604.614 876.761 604.121 882.364 609.725C885.755 613.116 887.634 618.739 887.53 626.565C887.53 626.908 887.53 627.256 887.505 627.614V627.997C887.505 628.355 887.475 628.713 887.445 629.076C887.445 629.523 887.396 629.966 887.351 630.413C887.306 630.856 887.281 631.194 887.236 631.591C887.236 631.701 887.217 631.815 887.197 631.935C887.167 632.278 887.122 632.631 887.072 632.984C887.072 633.088 887.072 633.197 887.033 633.307C886.978 633.779 886.908 634.246 886.829 634.714C886.774 635.161 886.699 635.579 886.62 636.016L886.491 636.757C886.361 637.463 886.197 638.159 885.993 638.846C885.606 640.133 885.138 641.391 884.586 642.614C883.816 644.295 882.966 645.93 882.031 647.521C881.514 648.407 880.982 649.277 880.43 650.137C879.863 651.027 879.266 651.927 878.65 652.836C877.079 655.084 875.448 657.286 873.753 659.439L872.977 660.419C870.213 663.864 867.359 667.24 864.415 670.537L863.485 671.581C862.233 672.978 860.96 674.385 859.657 675.797L858.678 676.861C858.026 677.572 857.345 678.283 856.689 678.999C856.038 679.71 855.356 680.431 854.67 681.152L852.627 683.305L850.553 685.472L848.465 687.64C847.063 689.092 845.656 690.544 844.239 691.995C824.078 712.674 802.838 733.282 795.648 746.13C795.166 746.965 794.734 747.83 794.346 748.71C793.322 751.047 792.894 753.046 793.187 754.662C793.282 755.194 793.466 755.701 793.739 756.168C794.142 756.869 794.634 757.516 795.206 758.092C795.47 758.351 795.748 758.589 796.041 758.808C797.523 759.862 799.308 760.404 801.128 760.355H801.694L802.276 760.31L802.858 760.245L803.34 760.176C803.405 760.166 803.474 760.156 803.539 760.136L803.981 760.051L804.096 760.026L804.588 759.922L804.762 759.877C804.936 759.832 805.105 759.788 805.279 759.738C805.453 759.688 805.692 759.624 805.901 759.554C806.776 759.291 807.631 758.977 808.471 758.619C808.914 758.44 809.346 758.246 809.774 758.038C809.997 757.938 810.221 757.834 810.43 757.724L811.096 757.396C812.687 756.571 814.239 755.671 815.75 754.706L816.411 754.259C816.635 754.12 816.859 753.976 817.073 753.816L817.734 753.374L818.087 753.13L819.041 752.459C819.931 751.848 820.762 751.216 821.602 750.575L821.677 750.515L823.014 749.481C824.839 748.039 826.569 746.587 828.14 745.22L829.184 744.305L829.279 744.216L829.826 743.733C831.108 742.58 832.252 741.506 833.202 740.621L833.594 740.238C833.937 739.915 834.251 739.612 834.534 739.353L835.091 738.801L835.29 738.607L835.344 738.553L835.926 737.971L836.294 737.588L836.339 737.553L836.513 737.394L836.732 737.195L836.801 737.131L836.985 736.962L837.999 736.072L838.566 735.564C838.869 735.301 839.163 735.032 839.456 734.759L840.132 734.157C840.257 734.058 840.376 733.949 840.5 733.839L841.211 733.218L842.255 732.298L842.812 731.816C844.975 729.936 847.605 727.664 850.628 725.104L851.866 724.054L853.91 722.339L856.003 720.594C858.737 718.322 861.681 715.91 864.793 713.41L866.837 711.769C868.577 710.382 870.362 708.97 872.171 707.548C872.902 706.976 873.643 706.404 874.399 705.837C876.248 704.4 878.108 702.973 879.982 701.566C884.248 698.345 888.648 695.118 893.103 691.976L895.013 690.643C896.35 689.723 897.682 688.798 899.015 687.899L900.223 687.083C902.605 685.467 905.021 683.891 907.457 682.355L908.665 681.594L909.864 680.848C911.067 680.103 912.26 679.372 913.448 678.661L914.637 677.95L917.013 676.567L919.345 675.23L919.817 674.972L921.662 673.957C922.433 673.54 923.198 673.137 923.964 672.744L925.103 672.157L926.211 671.601C926.599 671.417 926.982 671.223 927.36 671.039C929.856 669.806 932.401 668.672 934.987 667.638C935.688 667.34 936.384 667.071 937.075 666.837L939.114 666.121C939.725 665.918 940.322 665.724 940.893 665.55L941.092 665.49C941.401 665.391 941.709 665.301 942.012 665.222L942.102 665.197C942.738 665.013 943.369 664.854 943.991 664.705H944.036C945.796 664.282 947.586 663.979 949.39 663.795C950.221 663.71 951.051 663.665 951.886 663.67H952.304C952.861 663.67 953.398 663.705 953.93 663.76C954.174 663.76 954.417 663.81 954.656 663.839H954.755C954.994 663.869 955.233 663.904 955.471 663.959C955.705 664.003 955.944 664.043 956.172 664.098H956.247C956.481 664.148 956.689 664.207 956.933 664.277C958.196 664.63 959.399 665.177 960.503 665.893C961.045 666.246 961.552 666.644 962.019 667.086L962.153 667.215C962.243 667.295 962.328 667.379 962.407 667.464L962.651 667.727C964.649 669.821 966.3 672.222 967.543 674.837L967.732 675.285C968.155 676.279 968.488 677.308 968.726 678.357C969.432 681.569 969.159 684.92 967.941 687.978C967.478 689.211 966.917 690.399 966.255 691.533C964.709 694.138 962.874 696.56 960.791 698.752L960.349 699.225C959.687 699.921 959.001 700.617 958.28 701.313C957.962 701.626 957.629 701.934 957.296 702.248L956.277 703.187L955.745 703.66C954.462 704.803 953.144 705.912 951.807 706.986C950.996 707.642 950.181 708.284 949.356 708.915C946.442 711.142 943.474 713.29 940.451 715.364C938.626 716.616 936.787 717.844 934.932 719.058C930.363 722.056 925.744 724.979 921.08 727.823C911.296 733.839 900.452 740.273 888.892 747.268L885.899 749.083C882.622 751.082 879.53 752.991 876.616 754.811L875.15 755.731L872.375 757.511C870.536 758.689 868.701 759.877 866.866 761.066L865.39 762.04C864.669 762.507 863.953 762.985 863.237 763.462L862.536 763.909L860.388 765.356L859.249 766.137L857.917 767.062L856.679 767.922C854.606 769.389 852.677 770.786 850.902 772.113L850.235 772.62C849.191 773.411 848.157 774.216 847.138 775.037C845.601 776.275 844.199 777.458 842.942 778.597L842.325 779.158C841.972 779.482 841.624 779.805 841.291 780.123C841.062 780.347 840.848 780.57 840.61 780.784L840.291 781.102C839.58 781.818 838.884 782.549 838.213 783.3L837.885 783.678C837.154 784.523 836.518 785.333 835.961 786.124L835.712 786.477C835.275 787.113 834.872 787.77 834.509 788.446C834.415 788.615 834.33 788.784 834.246 788.953L834.002 789.46L833.838 789.828L833.733 790.077L833.649 790.3L833.535 790.604C833.226 791.444 833.013 792.319 832.888 793.204L832.849 793.512L832.819 793.801V795.367C832.819 795.496 832.819 795.625 832.853 795.765L832.878 796.003C832.878 796.133 832.908 796.257 832.928 796.396C832.948 796.525 832.983 796.759 833.022 796.943V796.968C833.057 797.142 833.092 797.311 833.137 797.485C833.182 797.659 833.226 797.858 833.281 798.037C833.375 798.39 833.495 798.738 833.619 799.086C833.699 799.295 833.773 799.499 833.858 799.702C833.858 799.742 833.888 799.787 833.908 799.827L834.086 800.229L834.335 800.781C834.604 801.353 834.897 801.91 835.215 802.452L835.543 803.019L835.881 803.585C835.941 803.68 836.011 803.769 836.085 803.854L836.195 803.968L836.319 804.083L836.448 804.182C836.637 804.316 836.841 804.421 837.055 804.495C837.169 804.535 837.288 804.565 837.408 804.595C840.277 805.241 846.173 802.869 854.009 798.733C854.452 798.494 854.939 798.246 855.411 797.987L857.798 796.684L858.961 796.038C859.791 795.596 860.637 795.093 861.502 794.601L863.078 793.711C873.434 787.75 885.804 780.093 898.592 772.615C899.791 771.914 900.994 771.213 902.197 770.522L904.613 768.976C907.417 767.37 910.237 765.784 913.066 764.218C916.63 762.259 920.22 760.35 923.845 758.5L926.211 757.302C927.783 756.526 929.339 755.77 930.875 755.035C933.848 753.623 936.856 752.28 939.899 751.012L941.565 750.336L941.764 750.256C950.589 746.761 958.589 744.603 965.062 744.603C966.459 744.589 967.861 744.708 969.238 744.946H969.283C969.726 745.026 970.128 745.116 970.541 745.215H970.616C971.675 745.483 972.704 745.866 973.678 746.359C975.046 747.065 976.274 748.004 977.313 749.138C977.79 749.665 978.213 750.237 978.586 750.843C979.282 751.912 979.829 753.071 980.221 754.284C980.381 754.756 980.52 755.218 980.664 755.711C981.713 759.474 981.609 763.467 980.366 767.171Z" fill="#FF9D00"/>
<path fill-rule="evenodd" clip-rule="evenodd" d="M921.712 497.131V494.689C921.712 286.594 753.074 117.901 544.964 117.901C336.859 117.901 168.156 286.604 168.156 494.689V495.505C168.146 496.047 168.141 496.589 168.156 497.131C168.18 497.941 168.189 498.751 168.181 499.562L168.206 501.352L168.221 501.993C168.221 502.291 168.231 502.585 168.241 502.883C168.256 503.355 168.265 503.833 168.265 504.305L168.32 506.239L168.4 508.511L168.425 509.257L168.524 511.609V511.723C168.564 512.643 168.614 513.558 168.659 514.473L168.663 514.542C168.713 515.477 168.763 516.417 168.823 517.356C168.872 518.221 168.922 519.087 168.986 519.952L168.997 520.106C169.04 520.847 169.09 521.592 169.145 522.333L169.16 522.532L169.324 524.68L169.34 524.819C169.37 525.237 169.399 525.655 169.439 526.057C169.736 529.642 170.083 533.227 170.478 536.802L170.503 537.025L170.806 539.656L171.145 542.415L171.393 544.289L171.507 545.169C171.772 547.198 172.059 549.221 172.367 551.24L172.388 551.374L172.68 553.284C174.1 562.377 175.858 571.416 177.951 580.381L177.976 580.49L178.135 581.161L178.587 583.075L178.866 582.742C189.804 569.666 205.495 562.457 223.051 562.457C237.122 562.457 251.556 567.11 266.024 576.284C275.62 582.379 286.23 593.173 297.148 606.752C307.251 592.721 321.411 583.394 337.61 580.848C340.698 580.361 343.82 580.117 346.947 580.112C383.918 580.112 406.187 612.196 414.6 641.058C418.756 650.808 438.788 695.217 468.998 725.258C514.918 771.134 526.409 818.471 503.682 869.16H503.761C505.308 869.334 506.864 869.493 508.43 869.638C509.36 869.727 510.285 869.817 511.219 869.896L511.547 869.926L513.601 870.1L515.49 870.249C517.29 870.388 519.095 870.518 520.905 870.632L522.341 870.717L523.48 870.786L524.186 870.826L526.409 870.94L527.015 870.965L529.347 871.07L531.942 871.169L534.026 871.229L534.374 871.239C534.816 871.258 535.259 871.273 535.701 871.273L536.178 871.288C539.112 871.358 542.04 871.393 544.974 871.388H548.086L550.309 871.363C550.855 871.338 551.397 871.338 551.949 871.338H552.814L553.565 871.318C553.859 871.308 554.152 871.298 554.45 871.298H555.34L557.085 871.254L559.711 871.164L562.599 871.035C563.434 871.005 564.26 870.96 565.085 870.92L565.975 870.866L567.298 870.796L568.073 870.751L568.66 870.712L571.33 870.537L573.995 870.344L576.416 870.15L578.117 870.006L579.986 869.836C583.108 869.558 586.221 869.23 589.333 868.857L591.456 868.603C569.088 818.128 580.667 770.994 626.394 725.302C656.539 695.182 676.571 650.773 680.747 641.018C689.165 612.161 711.419 580.077 748.4 580.077C751.528 580.077 754.655 580.326 757.743 580.813C773.926 583.359 788.086 592.686 798.204 606.717C809.127 593.144 819.733 582.34 829.333 576.244C843.797 567.076 858.245 562.422 872.301 562.422C887.793 562.422 901.834 568.04 912.439 578.347C912.633 577.507 912.822 576.667 913.006 575.821L913.548 573.306C913.742 572.386 913.936 571.466 914.12 570.546C914.448 568.92 914.776 567.294 915.089 565.654C915.417 563.953 915.731 562.243 916.029 560.533L916.183 559.608C916.278 559.061 916.367 558.514 916.471 557.962C916.64 557.107 916.78 556.252 916.919 555.387L916.974 555.059L917.327 552.806L917.675 550.524V550.504C917.928 548.819 918.167 547.133 918.391 545.448L918.445 545.03L918.758 542.654L919.012 540.625L919.46 536.628L919.634 535.022L919.678 534.584C919.773 533.719 919.862 532.854 919.942 531.989V531.919C920.006 531.233 920.076 530.542 920.136 529.851C920.489 525.933 920.787 521.995 921.026 518.042C921.07 517.396 921.105 516.745 921.145 516.093V516.064L921.274 513.622L921.304 513.076C921.384 511.425 921.453 509.774 921.508 508.124V508.064L921.533 507.417C921.558 506.876 921.578 506.329 921.578 505.782L921.588 505.563C921.607 505.051 921.627 504.524 921.627 504.002L921.642 503.554C921.657 503.032 921.672 502.515 921.672 501.993L921.682 501.551C921.697 500.889 921.712 500.223 921.712 499.562V497.131ZM451.506 873.536C481.348 829.778 479.23 796.933 438.291 756.014C397.343 715.09 373.512 655.248 373.512 655.248C373.512 655.248 364.617 620.489 344.332 623.681C324.046 626.873 309.165 678.815 351.641 710.61C394.111 742.406 343.188 763.964 326.841 734.128C310.493 704.286 265.859 627.584 242.72 612.912C219.581 598.24 203.308 606.463 208.762 636.703C211.471 651.713 236.67 677.333 260.212 701.268C284.097 725.551 306.276 748.104 301.533 756.084C292.121 771.929 258.974 737.464 258.974 737.464C258.974 737.464 155.179 643.007 132.587 667.623C111.754 690.31 143.878 709.596 193.379 739.323C197.585 741.849 201.921 744.454 206.361 747.139C262.996 781.426 267.401 790.47 259.361 803.441C256.393 808.234 237.435 796.853 214.117 782.858C174.366 758.987 121.952 727.52 114.549 755.686C108.145 780.063 146.707 794.999 181.68 808.548C210.815 819.834 237.465 830.155 233.542 844.166C229.48 858.694 207.46 846.578 183.391 833.333C156.368 818.461 126.76 802.173 117.07 820.555C98.7583 855.308 243.407 896.223 244.6 896.526C291.336 908.647 410.026 934.332 451.506 873.536ZM643.746 873.536C613.905 829.778 616.023 796.933 656.966 756.014C697.91 715.09 721.741 655.248 721.741 655.248C721.741 655.248 730.636 620.489 750.921 623.681C771.206 626.873 786.087 678.815 743.617 710.61C701.142 742.406 752.065 763.964 768.412 734.128C784.765 704.286 829.368 627.584 852.508 612.912C875.647 598.24 891.93 606.463 886.471 636.703C883.766 651.713 858.563 677.333 835.021 701.273C811.136 725.556 788.956 748.104 793.695 756.084C803.106 771.929 836.279 737.444 836.279 737.444C836.279 737.444 940.068 642.992 962.671 667.608C983.498 690.29 951.374 709.581 901.869 739.308C897.538 741.909 893.213 744.514 888.892 747.124C832.257 781.411 827.852 790.455 835.886 803.421C838.86 808.219 857.818 796.834 881.131 782.838C920.887 758.972 973.301 727.5 980.704 755.671C987.113 780.048 948.545 794.984 913.573 808.533C884.437 819.819 857.788 830.141 861.706 844.151C865.763 858.675 887.778 846.558 911.843 833.313C938.865 818.442 968.478 802.144 978.163 820.54C996.48 855.313 851.806 896.188 850.638 896.486C803.902 908.647 685.212 934.332 643.746 873.536Z" fill="#FFD21E"/>
<path fill-rule="evenodd" clip-rule="evenodd" d="M667.333 392.133C673.21 394.212 677.58 400.536 681.737 406.557C687.355 414.691 692.585 422.263 700.61 417.997C710.077 412.961 717.838 405.234 722.909 395.788C727.986 386.341 730.148 375.605 729.124 364.932C728.358 356.951 725.833 349.239 721.726 342.353C717.619 335.467 712.036 329.576 705.383 325.108C698.726 320.639 691.158 317.703 683.233 316.51C675.303 315.317 667.209 315.898 659.532 318.211C651.855 320.522 644.79 324.507 638.839 329.877C632.887 335.248 628.199 341.871 625.116 349.27C622.034 356.67 620.627 364.661 620.999 372.668C621.377 380.678 623.52 388.499 627.284 395.579C631.003 402.574 639.256 399.273 647.967 395.788C654.794 393.058 661.908 390.214 667.333 392.133ZM411.9 392.133C406.023 394.212 401.653 400.541 397.496 406.557C391.878 414.696 386.643 422.263 378.623 417.997C366.717 411.693 357.588 401.177 353.011 388.509C348.436 375.838 348.742 361.917 353.872 349.46C359.001 337.003 368.585 326.902 380.756 321.127C392.927 315.351 406.813 314.316 419.706 318.221C429.973 321.312 439.091 327.377 445.913 335.65C452.734 343.922 456.946 354.031 458.025 364.698C459.098 375.366 456.985 386.112 451.954 395.579C448.23 402.574 439.976 399.273 431.266 395.793C424.434 393.058 417.329 390.214 411.9 392.133ZM627.816 624.576C668.302 592.681 683.173 540.605 683.173 508.526C683.173 483.169 666.115 491.149 638.804 504.673L637.263 505.434C612.194 517.849 578.823 534.38 542.189 534.38C505.551 534.38 472.18 517.849 447.116 505.429C418.92 491.463 401.235 482.702 401.235 508.531C401.235 541.624 417.056 595.963 460.481 627.529C466.213 615.9 474.283 605.578 484.187 597.206C494.086 588.833 505.611 582.593 518.031 578.874C522.366 577.581 526.831 585.044 531.4 592.686C535.81 600.055 540.32 607.592 544.904 607.592C549.791 607.592 554.589 600.164 559.278 592.915C564.175 585.333 568.953 577.949 573.572 579.426C596.816 586.889 616.261 603.072 627.816 624.576Z" fill="#32343D"/>
<path d="M627.806 624.571C606.72 641.187 578.693 652.329 542.194 652.329C507.903 652.329 481.084 642.495 460.481 627.524C466.213 615.895 474.283 605.568 484.187 597.201C494.086 588.828 505.611 582.588 518.031 578.869C526.543 576.328 535.567 607.587 544.904 607.587C554.898 607.587 564.528 576.532 573.572 579.421C596.811 586.889 616.251 603.072 627.806 624.571Z" fill="#FF323D"/>
<path fill-rule="evenodd" clip-rule="evenodd" d="M315.087 437.244C310.27 440.465 304.731 442.449 298.964 443.016C293.196 443.588 287.376 442.723 282.023 440.5C277.744 438.735 273.855 436.14 270.582 432.863C267.308 429.592 264.713 425.704 262.946 421.423C260.728 416.068 259.866 410.251 260.436 404.484C261.006 398.716 262.99 393.177 266.212 388.36C270.085 382.562 275.589 378.044 282.029 375.376C288.47 372.709 295.557 372.01 302.394 373.372C309.231 374.733 315.511 378.091 320.438 383.02C325.366 387.952 328.721 394.236 330.077 401.073C331.436 407.909 330.737 414.994 328.07 421.433C325.402 427.872 320.881 433.371 315.087 437.244ZM819.305 437.244C814.487 440.465 808.948 442.449 803.181 443.016C797.409 443.588 791.591 442.723 786.237 440.5C781.956 438.73 778.068 436.14 774.796 432.863C771.525 429.592 768.929 425.704 767.159 421.423C764.947 416.068 764.087 410.251 764.654 404.484C765.225 398.716 767.209 393.177 770.426 388.36C773.32 384.024 777.143 380.39 781.613 377.709C786.083 375.029 791.089 373.375 796.275 372.866C801.466 372.356 806.701 373.003 811.603 374.76C816.511 376.518 820.966 379.343 824.65 383.03C829.582 387.957 832.938 394.236 834.295 401.073C835.658 407.909 834.957 414.994 832.287 421.433C829.617 427.872 825.102 433.371 819.305 437.244Z" fill="#FFAD03"/>
<rect x="100" y="856" width="900" height="200" rx="64" fill="#6B7280"/>
<path d="M375.75 1006H356.375V930.75H331.562V914.625H400.562V930.75H375.75V1006ZM497.562 960.188C497.562 975.312 493.812 986.938 486.312 995.062C478.812 1003.19 468.062 1007.25 454.062 1007.25C440.062 1007.25 429.312 1003.19 421.812 995.062C414.312 986.938 410.562 975.271 410.562 960.062C410.562 944.854 414.312 933.25 421.812 925.25C429.354 917.208 440.146 913.188 454.188 913.188C468.229 913.188 478.958 917.229 486.375 925.312C493.833 933.396 497.562 945.021 497.562 960.188ZM430.875 960.188C430.875 970.396 432.812 978.083 436.688 983.25C440.562 988.417 446.354 991 454.062 991C469.521 991 477.25 980.729 477.25 960.188C477.25 939.604 469.562 929.312 454.188 929.312C446.479 929.312 440.667 931.917 436.75 937.125C432.833 942.292 430.875 949.979 430.875 960.188ZM599.438 960.188C599.438 975.312 595.688 986.938 588.188 995.062C580.688 1003.19 569.938 1007.25 555.938 1007.25C541.938 1007.25 531.188 1003.19 523.688 995.062C516.188 986.938 512.438 975.271 512.438 960.062C512.438 944.854 516.188 933.25 523.688 925.25C531.229 917.208 542.021 913.188 556.062 913.188C570.104 913.188 580.833 917.229 588.25 925.312C595.708 933.396 599.438 945.021 599.438 960.188ZM532.75 960.188C532.75 970.396 534.688 978.083 538.562 983.25C542.438 988.417 548.229 991 555.938 991C571.396 991 579.125 980.729 579.125 960.188C579.125 939.604 571.438 929.312 556.062 929.312C548.354 929.312 542.542 931.917 538.625 937.125C534.708 942.292 532.75 949.979 532.75 960.188ZM618.375 1006V914.625H637.75V990H674.812V1006H618.375ZM744.688 980.625C744.688 988.875 741.708 995.375 735.75 1000.12C729.833 1004.88 721.583 1007.25 711 1007.25C701.25 1007.25 692.625 1005.42 685.125 1001.75V983.75C691.292 986.5 696.5 988.438 700.75 989.562C705.042 990.688 708.958 991.25 712.5 991.25C716.75 991.25 720 990.438 722.25 988.812C724.542 987.188 725.688 984.771 725.688 981.562C725.688 979.771 725.188 978.188 724.188 976.812C723.188 975.396 721.708 974.042 719.75 972.75C717.833 971.458 713.896 969.396 707.938 966.562C702.354 963.938 698.167 961.417 695.375 959C692.583 956.583 690.354 953.771 688.688 950.562C687.021 947.354 686.188 943.604 686.188 939.312C686.188 931.229 688.917 924.875 694.375 920.25C699.875 915.625 707.458 913.312 717.125 913.312C721.875 913.312 726.396 913.875 730.688 915C735.021 916.125 739.542 917.708 744.25 919.75L738 934.812C733.125 932.812 729.083 931.417 725.875 930.625C722.708 929.833 719.583 929.438 716.5 929.438C712.833 929.438 710.021 930.292 708.062 932C706.104 933.708 705.125 935.938 705.125 938.688C705.125 940.396 705.521 941.896 706.312 943.188C707.104 944.438 708.354 945.667 710.062 946.875C711.812 948.042 715.917 950.167 722.375 953.25C730.917 957.333 736.771 961.438 739.938 965.562C743.104 969.646 744.688 974.667 744.688 980.625Z" fill="white"/>
</svg>
